<svg width="152" height="32" viewBox="0 0 152 32" fill="none" xmlns="http://www.w3.org/2000/svg">
<path fill-rule="evenodd" clip-rule="evenodd" d="M0 12.8C0 8.31957 3.8147e-07 6.07937 0.871948 4.36808C1.63894 2.86278 2.86278 1.63894 4.36808 0.871948C6.07937 3.8147e-07 8.31958 0 12.8 0H19.2C23.6804 0 25.9206 3.8147e-07 27.6319 0.871948C29.1372 1.63894 30.3611 2.86278 31.1281 4.36808C32 6.07937 32 8.31958 32 12.8V19.2C32 23.6804 32 25.9206 31.1281 27.6319C30.3611 29.1372 29.1372 30.3611 27.6319 31.128C25.9206 32 23.6804 32 19.2 32H12.8C8.31958 32 6.07937 32 4.36808 31.128C2.86278 30.3611 1.63894 29.1372 0.871948 27.6319C3.8147e-07 25.9206 0 23.6804 0 19.2V12.8ZM24.4214 23.2927C23.8492 23.8144 22.7651 24.0754 21.1697 24.0754H19.6524V25.9264C19.6524 26.0944 19.585 26.2556 19.4652 26.3744C19.3453 26.4932 19.1827 26.56 19.0132 26.56H17.7972C17.6277 26.56 17.4651 26.4932 17.3452 26.3744C17.2254 26.2556 17.158 26.0944 17.158 25.9264V24.0754H10.9034C9.27142 24.0754 8.16604 23.8144 7.58747 23.2927C7.00916 22.771 6.72 21.7884 6.72 20.3447V19.908L10.1544 19.2708V21.1271H21.7909V17.5239H11.5426C9.92278 17.5239 8.82653 17.2602 8.25431 16.7322C7.68183 16.2044 7.39547 15.2249 7.39547 13.793V12.0279C7.39547 10.6084 7.68183 9.63484 8.25431 9.10709C8.82653 8.57934 9.92279 8.31534 11.5423 8.31534H12.1696V6.0736C12.1696 5.90556 12.2369 5.7444 12.3568 5.62558C12.4767 5.50675 12.6392 5.44 12.8088 5.44H14.0247C14.1943 5.44 14.3568 5.50675 14.4767 5.62558C14.5966 5.7444 14.6639 5.90556 14.6639 6.0736V8.31534H20.9323C22.5277 8.31534 23.6207 8.56702 24.2114 9.07063C24.8021 9.57399 25.0974 10.4628 25.0974 11.7368V12.119L21.7543 12.8285V11.1361H10.8666V14.4665H21.1697C22.7895 14.4665 23.8796 14.7243 24.4397 15.2397C25 15.7556 25.28 16.7352 25.28 18.1789V20.3447C25.28 21.7884 24.9939 22.771 24.4214 23.2927Z" fill="white"/>
<path fill-rule="evenodd" clip-rule="evenodd" d="M49.3746 24.4119L54.1659 12.81L58.8815 24.4116H61.5977L68.1621 7.99489H64.5593L60.3529 19.4451L55.7879 7.99515H53.0531L48.4506 19.4451L44.1685 7.99515H40L46.6398 24.4119H49.3746ZM90.4583 24.4119V21.3408H76.745V17.303H84.6107V14.4783H76.745V10.8955H90.2509V7.99515H72.7268V24.4119H90.4583ZM100.173 24.4119V7.99515H96.2116V24.4119H100.173Z" fill="white"/>
<path d="M147.557 24.4119C149.204 24.4119 150.323 24.14 150.914 23.5966C151.505 23.0531 151.801 22.0296 151.801 20.5257V18.2697C151.801 16.7658 151.512 15.7454 150.933 15.208C150.355 14.6711 149.229 14.4026 147.557 14.4026H136.918V10.9335H148.16V12.6963L151.612 11.9572V11.5591C151.612 10.2321 151.307 9.30624 150.697 8.78191C150.087 8.25732 148.959 7.99515 147.312 7.99515H140.977V5.66C140.977 5.48496 140.908 5.31708 140.784 5.19331C140.66 5.06954 140.492 5 140.317 5H139.062C138.887 5 138.719 5.06954 138.595 5.19331C138.471 5.31708 138.402 5.48496 138.402 5.66V7.99515H137.616C135.943 7.99515 134.812 8.27015 134.22 8.81989C133.629 9.36963 133.334 10.3837 133.334 11.8624V13.701C133.334 15.1926 133.629 16.2129 134.22 16.7627C134.812 17.3127 135.943 17.5874 137.616 17.5874H148.198V21.3408H136.182V19.4071L132.636 20.0708V20.5257C132.636 22.0296 132.935 23.0531 133.532 23.5966C134.129 24.14 135.27 24.4119 136.956 24.4119H143.553V26.34C143.553 26.515 143.622 26.6829 143.746 26.8067C143.87 26.9305 144.038 27 144.213 27H145.468C145.643 27 145.811 26.9305 145.935 26.8067C146.058 26.6829 146.128 26.515 146.128 26.34V24.4119H147.557Z" fill="white"/>
<path d="M121.941 24.4119C123.588 24.4119 124.707 24.14 125.298 23.5966C125.889 23.0531 126.185 22.0296 126.185 20.5257V18.2697C126.185 16.7658 125.896 15.7454 125.317 15.208C124.739 14.6711 123.613 14.4026 121.941 14.4026H111.302V10.9335H122.544V12.6963L125.996 11.9572V11.5591C125.996 10.2321 125.691 9.30624 125.081 8.78191C124.471 8.25732 123.343 7.99515 121.695 7.99515H115.223V5.66C115.223 5.48496 115.153 5.31708 115.03 5.19331C114.906 5.06954 114.738 5 114.563 5H113.307C113.132 5 112.964 5.06954 112.841 5.19331C112.717 5.31708 112.647 5.48496 112.647 5.66V7.99515H112C110.327 7.99515 109.195 8.27015 108.605 8.81989C108.014 9.36963 107.718 10.3837 107.718 11.8624V13.701C107.718 15.1926 108.014 16.2129 108.605 16.7627C109.195 17.3127 110.327 17.5874 112 17.5874H122.582V21.3408H110.567V19.4071L107.02 20.0708V20.5257C107.02 22.0296 107.319 23.0531 107.916 23.5966C108.513 24.14 109.655 24.4119 111.34 24.4119H117.798V26.34C117.798 26.515 117.868 26.6829 117.992 26.8067C118.115 26.9305 118.283 27 118.458 27H119.714C119.889 27 120.057 26.9305 120.181 26.8067C120.304 26.6829 120.374 26.515 120.374 26.34V24.4119H121.941Z" fill="white"/>
</svg>
